<svg width="244" height="72" viewBox="0 0 244 72" fill="none" xmlns="http://www.w3.org/2000/svg">
<path d="M45.0669 0V28.8059H20.4946V0H45.0669ZM38.2631 17.8409C38.2631 16.8575 38.0483 16.0233 37.6179 15.3393C37.1782 14.6423 36.5532 14.1387 35.7448 13.8264C36.3283 13.4914 36.7735 13.0408 37.0814 12.4757C37.3773 11.9127 37.5257 11.2459 37.5257 10.4776C37.5257 9.13333 37.1063 8.10134 36.2665 7.38166C35.4277 6.66089 34.2441 6.30104 32.7195 6.30104H27.5279V22.5037H33.0412C34.127 22.5037 35.058 22.3179 35.837 21.9461C36.6149 21.5614 37.2141 21.0222 37.6335 20.3252C38.0529 19.6293 38.2631 18.8016 38.2631 17.8409ZM32.4577 12.9619H30.3237V8.93017H32.4577C33.9417 8.93017 34.6847 9.57205 34.6847 10.8558C34.6847 11.5161 34.4957 12.0326 34.1169 12.4043C33.738 12.7761 33.185 12.9619 32.4577 12.9619ZM35.3908 17.7155C35.3908 18.4115 35.1604 18.9453 34.6995 19.3181C34.2496 19.6898 33.6044 19.8757 32.7655 19.8757H30.3228V15.5003H32.8116C34.5308 15.5003 35.3908 16.2394 35.3908 17.7155ZM75.781 0V28.8059H51.2097V0H75.781ZM68.9782 17.8409C68.9782 16.8575 68.7625 16.0233 68.3329 15.3393C67.8923 14.6423 67.2683 14.1387 66.4589 13.8264C67.0424 13.4914 67.4886 13.0408 67.7955 12.4757C68.0923 11.9127 68.2407 11.2459 68.2407 10.4776C68.2407 9.13333 67.8213 8.10134 66.9816 7.38166C66.1418 6.66089 64.9592 6.30104 63.4336 6.30104H58.243V22.5037H63.7562C64.8412 22.5037 65.7731 22.3179 66.5511 21.9461C67.3291 21.5614 67.9283 21.0222 68.3486 20.3252C68.768 19.6293 68.9773 18.8016 68.9773 17.8409H68.9782ZM63.1727 12.9619H61.0379V8.93017H63.1737C64.6577 8.93017 65.4007 9.57205 65.4007 10.8558C65.4007 11.5161 65.2108 12.0326 64.832 12.4043C64.454 12.7761 63.9009 12.9619 63.1727 12.9619ZM66.1059 17.7155C66.1059 18.4115 65.8754 18.9453 65.4145 19.3181C64.9647 19.6898 64.3194 19.8757 63.4797 19.8757H61.0379V15.5003H63.5267C65.2458 15.5003 66.1059 16.2394 66.1059 17.7155ZM81.9238 0H106.496V28.8059H81.9229V0H81.9238ZM99.5697 18.3812C98.382 19.2505 97.008 19.7062 95.6079 19.6952C94.6759 19.6952 93.8823 19.4921 93.2269 19.0836C92.5743 18.6786 92.0477 18.042 91.7225 17.2649C91.3741 16.4728 91.1998 15.5133 91.1998 14.3851C91.1998 13.2688 91.3796 12.3146 91.7373 11.5215C92.0842 10.7552 92.6191 10.1285 93.273 9.72226C93.9486 9.31379 94.7626 9.10955 95.7157 9.10955C96.4015 9.10955 97.056 9.21761 97.681 9.43374C98.305 9.64986 98.8839 9.96215 99.4167 10.3695V7.21956C98.8153 6.85179 98.1749 6.57925 97.5123 6.40911C96.7974 6.21341 96.0654 6.11693 95.3313 6.12166C94.2252 6.12166 93.2269 6.31293 92.3364 6.69763C91.446 7.09313 90.6827 7.65181 90.0485 8.37149C89.4054 9.1064 88.9073 9.99753 88.5893 10.9823C88.251 12.0023 88.0823 13.1359 88.0823 14.3851C88.0823 15.6818 88.2464 16.8392 88.5737 17.8593C88.8917 18.8912 89.3572 19.7611 89.9711 20.47C90.5859 21.1897 91.3335 21.7365 92.2138 22.1082C93.1043 22.4918 94.1026 22.6842 95.2078 22.6842C96.0374 22.6842 96.8311 22.5761 97.5888 22.36C98.3355 22.1439 98.9964 21.85 99.5707 21.4782V18.3812H99.5697Z" fill="#0D1E14"/>
<path d="M118 0H138.218V5.19516H124.314V11.4787H136.65V16.6749H124.315V23.8039H139V29H118V0Z" fill="#0D1E14"/>
<path d="M157.2 0.000979836C159.205 4.81766 161.171 9.64316 163.096 14.4755C165.004 19.3245 166.857 24.1667 168.653 28.999H161.761C161.065 26.9022 160.361 24.8078 159.65 22.7159H147.832C147.116 24.8062 146.413 26.9006 145.721 28.999H139C140.811 24.0126 142.687 19.0502 144.629 14.1131C146.511 9.38495 148.452 4.68055 150.453 0.000979836H157.2ZM149.604 17.5211H157.806C157.142 15.6335 156.47 13.7484 155.792 11.8659C155.11 10.0187 154.423 8.1738 153.729 6.33114C152.318 10.0477 150.943 13.7779 149.604 17.5211ZM171.516 29V0H182.144C185.978 0 188.915 0.797391 190.953 2.39217C193.008 3.98696 194.035 6.27432 194.035 9.25523C194.035 11.1723 193.582 12.8073 192.676 14.1611C191.77 15.5139 190.476 16.5532 188.794 17.2781C190.008 19.1975 191.213 21.1228 192.409 23.0538C193.627 25.0223 194.824 27.0038 196 28.998H188.794C186.848 25.4428 184.825 21.9302 182.727 18.4625H177.704V28.998H171.517L171.516 29ZM177.703 13.5576H181.78C183.705 13.5576 185.17 13.2108 186.172 12.5193C187.176 11.8257 187.677 10.7383 187.677 9.25621C187.677 7.74176 187.183 6.63775 186.197 5.94518C185.21 5.2526 183.754 4.9068 181.829 4.9068H177.704V13.5566L177.703 13.5576Z" fill="#0D1E14"/>
<path d="M196 0H218.378V5.43695H210.035V29H204.342V5.43695H196V0ZM221.07 0H226.765V11.1159H238.284V0H244V28.999H238.284V16.5538H226.765V28.999H221.07V0Z" fill="#0D1E14"/>
</svg>
